<svg viewBox="0 0 125 165.9237714323689" xmlns="http://www.w3.org/2000/svg"><defs>
<linearGradient id="SvgjsLinearGradient1018"><stop id="SvgjsStop1019" stop-color="#fbb040" offset="0"></stop><stop id="SvgjsStop1020" stop-color="#f9ed32" offset="1"></stop></linearGradient></defs><g transform="translate(-24.665605741084907, -4.973643134141491) scale(1.7618289815060648)" class="css-1j22iks" fill="url(#SvgjsLinearGradient1018)"><path xmlns="http://www.w3.org/2000/svg" fill="{{COLOR}}" d="M83.667,97h-16.76c-0.709,0-1.282-0.573-1.282-1.279V28.677c0-0.706,0.573-1.279,1.282-1.279h16.76  c0.709,0,1.282,0.573,1.282,1.279v67.044C84.949,96.427,84.376,97,83.667,97z M68.188,94.44h14.199V29.96H68.188V94.44z"></path><path xmlns="http://www.w3.org/2000/svg" fill="{{COLOR}}" d="M57.326,28.677h-2.56v-7.292c0-8.822-7.181-16.003-16.006-16.003s-16.003,7.181-16.003,16.003v7.292h-2.56  v-7.292c0-10.236,8.326-18.562,18.562-18.562s18.565,8.326,18.565,18.562V28.677z"></path><path xmlns="http://www.w3.org/2000/svg" fill="{{COLOR}}" d="M82.65,96.497l-8.382-10.964c-0.171-0.223-0.263-0.498-0.263-0.778V22.467  c0-8.825-7.181-16.003-16.005-16.003c-8.823,0-16.004,7.178-16.004,16.003v6.21h-2.56v-6.21c0-10.239,8.327-18.565,18.563-18.565  s18.564,8.326,18.564,18.565v61.856l8.121,10.618L82.65,96.497z"></path><path xmlns="http://www.w3.org/2000/svg" fill="{{COLOR}}" d="M66.448,97H15.279C14.572,97,14,96.427,14,95.721V28.677c0-0.706,0.572-1.279,1.279-1.279h51.169v2.562  H16.56v64.48h49.276l8.453-10.489l1.994,1.607l-8.838,10.966C67.202,96.826,66.836,97,66.448,97z"></path></g></svg>